<svg width="241" height="117" viewBox="0 0 241 117" fill="none" xmlns="http://www.w3.org/2000/svg">
<path d="M84.4909 103.446L82.0968 69.2094L89.7581 68.6737L91.7169 96.6853L116.76 94.9341L117.195 101.159L84.4909 103.446ZM121.993 100.823L119.599 66.587L148.281 64.5813C151.824 64.3336 154.632 65.0354 156.704 66.6869C158.809 68.3361 159.988 70.9803 160.242 74.6194C160.497 78.2585 159.697 81.0411 157.843 82.9671C156.021 84.8909 153.338 85.9767 149.794 86.2245L128.774 87.6944L129.654 100.288L121.993 100.823ZM147.806 70.8698L127.696 72.2761L128.335 81.4217L148.449 80.0633C149.854 79.9651 150.899 79.5392 151.584 78.7856C152.301 78.0297 152.601 76.8218 152.485 75.1618C152.367 73.47 151.901 72.3156 151.088 71.6989C150.305 71.0479 149.211 70.7716 147.806 70.8698Z" fill="#351D01"/>
<path d="M6.24 45.7898L2.4 11.4698H10.08L12.912 36.5258L22.464 29.1818V11.4698H30.144V29.2298L39.6 36.5258L42.48 11.4698H50.16L46.32 45.7898H39.888L26.304 34.7978L12.672 45.7898H6.24ZM67.1558 46.0298C62.8678 46.0298 59.5238 44.9738 57.1238 42.8618C54.7238 40.7178 53.5238 37.5818 53.5238 33.4538C53.5238 29.2938 54.7238 26.1578 57.1238 24.0458C59.5238 21.9018 62.8678 20.8298 67.1558 20.8298H76.0358C80.3238 20.8298 83.6678 21.9018 86.0678 24.0458C88.4678 26.1578 89.6678 29.2938 89.6678 33.4538C89.6678 37.5818 88.4678 40.7178 86.0678 42.8618C83.6678 44.9738 80.3238 46.0298 76.0358 46.0298H67.1558ZM67.1558 40.5098H76.0358C78.1158 40.5098 79.6998 39.9338 80.7878 38.7818C81.9078 37.6298 82.4678 35.8538 82.4678 33.4538C82.4678 31.0218 81.9078 29.2298 80.7878 28.0778C79.6998 26.9258 78.1158 26.3498 76.0358 26.3498H67.1558C65.0758 26.3498 63.4758 26.9258 62.3558 28.0778C61.2678 29.2298 60.7238 31.0218 60.7238 33.4538C60.7238 35.8538 61.2678 37.6298 62.3558 38.7818C63.4758 39.9338 65.0758 40.5098 67.1558 40.5098ZM93.9994 45.7898V21.0698H112.911C115.695 21.0698 117.743 21.7738 119.055 23.1818C120.367 24.5578 121.023 26.3818 121.023 28.6538V33.7898H113.967V29.5178C113.967 27.5978 113.007 26.6378 111.087 26.6378H101.055V45.7898H93.9994ZM124.027 46.0298V40.5098H147.547C148.891 40.5098 149.563 39.7578 149.563 38.2538C149.563 36.7818 148.891 36.0458 147.547 36.0458H132.331C129.483 36.0458 127.323 35.4058 125.851 34.1258C124.379 32.8138 123.643 30.9418 123.643 28.5098C123.643 26.0458 124.379 24.1578 125.851 22.8458C127.355 21.5018 129.515 20.8298 132.331 20.8298H154.219V26.3498H132.667C131.291 26.3498 130.603 27.0218 130.603 28.3658C130.603 29.0378 130.795 29.5658 131.179 29.9498C131.563 30.3338 132.059 30.5258 132.667 30.5258H148.795C151.291 30.5258 153.195 31.1818 154.507 32.4938C155.851 33.7738 156.523 35.6458 156.523 38.1098C156.523 40.6058 155.851 42.5578 154.507 43.9658C153.163 45.3418 151.259 46.0298 148.795 46.0298H124.027ZM160.609 45.7898V11.4698H167.569V21.0698H182.161C184.977 21.0698 187.025 21.7738 188.305 23.1818C189.617 24.5578 190.273 26.3818 190.273 28.6538V45.7898H183.313V29.4698C183.313 27.5498 182.353 26.5898 180.433 26.5898H167.569V45.7898H160.609ZM195.296 45.7898V21.0698H202.256V45.7898H195.296ZM195.248 16.9898V11.5658H202.304V16.9898H195.248ZM207.531 56.5898V21.0698H225.291C229.579 21.0698 232.923 22.1258 235.323 24.2378C237.723 26.3498 238.923 29.4058 238.923 33.4058C238.923 37.4378 237.723 40.5098 235.323 42.6218C232.923 44.7338 229.579 45.7898 225.291 45.7898H214.491V56.5898H207.531ZM225.291 26.5898H214.491V40.2698H225.291C227.371 40.2698 228.955 39.7098 230.043 38.5898C231.163 37.4378 231.723 35.7098 231.723 33.4058C231.723 31.1338 231.163 29.4378 230.043 28.3178C228.955 27.1658 227.371 26.5898 225.291 26.5898Z" fill="white"/>
</svg>
